<svg aria-hidden="true" style="position:absolute;width:0;height:0;overflow:hidden" xmlns="http://www.w3.org/2000/svg">
  <defs>
    <symbol id="icon-Feature-icon3" viewBox="0 0 32 32">
      <path fill="#f4f5f7" style="fill:var(--color1, #f4f5f7)" d="M16 0c8.837 0 16 7.163 16 16s-7.163 16-16 16S0 24.837 0 16 7.163 0 16 0z"/>
      <path fill="#d6b1ff" style="fill:var(--color2, #d6b1ff)" d="M11.52 8.96H9.6c-.17 0-.333.067-.453.187s-.187.283-.187.453v12.8c0 .17.067.333.187.453s.283.187.453.187h1.92V8.96z"/>
      <path fill="#f03e3d" style="fill:var(--color3, #f03e3d)" d="M12.8 23.04h6.4V8.96h-6.4v14.08zm3.2-2.56c-.17 0-.333-.067-.453-.187s-.187-.283-.187-.453c0-.17.067-.333.187-.453s.283-.187.453-.187c.17 0 .333.067.453.187s.187.283.187.453c0 .17-.067.333-.187.453s-.283.187-.453.187zm0-8.96c.17 0 .333.067.453.187s.187.283.187.453c0 .17-.067.333-.187.453s-.283.187-.453.187c-.17 0-.333-.067-.453-.187s-.187-.283-.187-.453c0-.17.067-.333.187-.453s.283-.187.453-.187zm0 3.84c.17 0 .333.067.453.187s.187.283.187.453c0 .17-.067.333-.187.453s-.283.187-.453.187c-.17 0-.333-.067-.453-.187s-.187-.283-.187-.453c0-.17.067-.333.187-.453s.283-.187.453-.187zM22.4 8.96h-1.92v14.08h1.92c.17 0 .333-.067.453-.187s.187-.283.187-.453V9.6c0-.17-.067-.333-.187-.453s-.283-.187-.453-.187z"/>
    </symbol>
    <symbol id="icon-Feature-icon2" viewBox="0 0 32 32">
      <path fill="#f4f5f7" style="fill:var(--color1, #f4f5f7)" d="M16 0c8.837 0 16 7.163 16 16s-7.163 16-16 16S0 24.837 0 16 7.163 0 16 0z"/>
      <path fill="#d6b1ff" style="fill:var(--color2, #d6b1ff)" d="M21.76 23.68H16c-.17 0-.333-.067-.453-.187s-.187-.283-.187-.453v-1.28c0-.17.067-.333.187-.453s.283-.187.453-.187h5.76c.17 0 .333.067.453.187s.187.283.187.453v1.28c0 .17-.067.333-.187.453s-.283.187-.453.187z"/>
      <path fill="#11b5e4" style="fill:var(--color4, #11b5e4)" d="M21.76 8.32H10.24c-.17 0-.333.067-.453.187S9.6 8.79 9.6 8.96v1.28c0 .17.067.333.187.453s.283.187.453.187h11.52c.17 0 .333-.067.453-.187s.187-.283.187-.453V8.96c0-.17-.067-.333-.187-.453s-.283-.187-.453-.187zM21.76 12.16H10.24c-.17 0-.333.067-.453.187s-.187.283-.187.453v6.4c0 .17.067.333.187.453s.283.187.453.187h11.52c.17 0 .333-.067.453-.187s.187-.283.187-.453v-6.4c0-.17-.067-.333-.187-.453s-.283-.187-.453-.187z"/>
    </symbol>
    <symbol id="icon-Feature-icon1" viewBox="0 0 32 32">
      <path fill="#f4f5f7" style="fill:var(--color1, #f4f5f7)" d="M16 0c8.837 0 16 7.163 16 16s-7.163 16-16 16S0 24.837 0 16 7.163 0 16 0z"/>
      <path fill="#d6b1ff" style="fill:var(--color2, #d6b1ff)" d="M19.84 14.72h3.84l-1.92-2.56-1.92 2.56zm0 2.56h3.84l-1.92 2.56-1.92-2.56z"/>
      <path fill="#02897a" style="fill:var(--color5, #02897a)" d="M8.96 8.32h3.84v15.36H8.96c-.17 0-.333-.067-.453-.187s-.187-.283-.187-.453V8.96c0-.17.067-.333.187-.453s.283-.187.453-.187zM14.08 8.32h3.84c.17 0 .333.067.453.187s.187.283.187.453v14.08c0 .17-.067.333-.187.453s-.283.187-.453.187h-3.84V8.32z"/>
    </symbol>
    <symbol id="icon-twitter" viewBox="0 0 32 32">
<path stroke-linejoin="round" stroke-linecap="round" stroke-miterlimit="4" stroke-width="2.6667" d="M30.667 4.013c-1.277 0.901-2.691 1.589-4.187 2.040-0.803-0.923-1.87-1.578-3.057-1.875s-2.437-0.222-3.58 0.214c-1.143 0.436-2.125 1.213-2.812 2.226s-1.047 2.211-1.031 3.435v1.333c-2.343 0.061-4.665-0.459-6.759-1.513s-3.894-2.609-5.241-4.527c0 0-5.333 12 6.667 17.333-2.746 1.864-6.017 2.799-9.333 2.667 12 6.667 26.667 0 26.667-15.333-0.001-0.371-0.037-0.742-0.107-1.107 1.361-1.342 2.321-3.036 2.773-4.893v0z"></path>
</symbol>
    <symbol id="icon-facebook" viewBox="0 0 32 32">
<path stroke-linejoin="round" stroke-linecap="round" stroke-miterlimit="4" stroke-width="2.6667" d="M24 2.667h-4c-1.768 0-3.464 0.702-4.714 1.953s-1.953 2.946-1.953 4.714v4h-4v5.333h4v10.667h5.333v-10.667h4l1.333-5.333h-5.333v-4c0-0.354 0.141-0.693 0.391-0.943s0.589-0.391 0.943-0.391h4v-5.333z"></path>
</symbol>
    <symbol id="icon-instagram" viewBox="0 0 32 32">
<path stroke-linejoin="round" stroke-linecap="round" stroke-miterlimit="4" stroke-width="2.6667" d="M22.667 2.667h-13.333c-3.682 0-6.667 2.985-6.667 6.667v13.333c0 3.682 2.985 6.667 6.667 6.667h13.333c3.682 0 6.667-2.985 6.667-6.667v-13.333c0-3.682-2.985-6.667-6.667-6.667z"></path>
<path stroke-linejoin="round" stroke-linecap="round" stroke-miterlimit="4" stroke-width="2.6667" d="M21.333 15.16c0.165 1.11-0.025 2.243-0.542 3.239s-1.334 1.803-2.336 2.308c-1.002 0.504-2.138 0.68-3.245 0.502s-2.131-0.701-2.924-1.494-1.316-1.816-1.494-2.924c-0.178-1.107-0.003-2.243 0.502-3.245s1.312-1.82 2.307-2.336c0.996-0.517 2.129-0.706 3.239-0.542 1.132 0.168 2.18 0.695 2.989 1.504s1.337 1.857 1.505 2.989z"></path>
<path stroke-linejoin="round" stroke-linecap="round" stroke-miterlimit="4" stroke-width="2.6667" d="M23.333 8.667h0.013"></path>
</symbol>
    <symbol id="icon-tick" viewBox="0 0 45 32">
      <path d="M42.17 0.638c-0.834-0.851-2.188-0.851-3.022 0l-25.606 26.102-9.843-10.033c-0.835-0.851-2.188-0.851-3.023 0s-0.835 2.23 0 3.081l11.354 11.574c0.834 0.851 2.189 0.85 3.023 0l27.117-27.643c0.835-0.851 0.835-2.23 0-3.081z"></path>
      </symbol>
    <symbol id="icon-sandclock" viewBox="0 0 26 32">
<path fill="#fff" style="fill: var(--color1, #fff)" d="M23.664 2.689h1.614c0.302 0 0.538-0.235 0.538-0.538v-1.076c0-0.303-0.235-0.538-0.538-0.538h-24.74c-0.303 0-0.538 0.235-0.538 0.538v1.076c0 0.303 0.235 0.538 0.538 0.538h1.613c0 6.219 2.975 10.723 6.269 12.908-3.294 2.185-6.269 6.689-6.269 12.908h-1.613c-0.303 0-0.538 0.235-0.538 0.538v1.076c0 0.302 0.235 0.538 0.538 0.538h24.74c0.302 0 0.538-0.235 0.538-0.538v-1.076c0-0.302-0.235-0.538-0.538-0.538h-1.614c0-6.219-2.975-10.723-6.269-12.908 3.294-2.185 6.269-6.689 6.269-12.908zM21.513 2.689c0 2.454-0.555 4.622-1.429 6.454h-14.353c-0.874-1.832-1.429-4-1.429-6.454h17.21zM20.555 23.126h-15.294c1.244-3.244 3.479-5.546 5.714-6.454h3.866c2.235 0.908 4.471 3.21 5.714 6.454z"></path>
</symbol>
    <symbol id="icon-heard" viewBox="0 0 34 32">
<path fill="#fff" style="fill: var(--color1, #fff)" d="M17.067 30.172c0.305 0 0.61-0.114 0.838-0.343l11.867-11.428c0.171-0.171 4.362-4 4.362-8.571 0-5.581-3.41-8.914-9.105-8.914-3.333 0-6.457 2.629-7.962 4.114-1.505-1.486-4.629-4.114-7.962-4.114-5.695 0-9.105 3.333-9.105 8.914 0 4.571 4.191 8.4 4.343 8.533l11.886 11.467c0.229 0.229 0.533 0.343 0.838 0.343z"></path>
</symbol>
    <symbol id="icon-wave" viewBox="0 0 41 32">
<path fill="#fff" style="fill: var(--color1, #fff)" d="M21.673 12.898l2.674 1.245 3.98-1.184v-2.775c0-4.714-3.98-8.49-8.735-8.49-4.735 0-8.735 3.755-8.735 8.429v12.653c0 1.163-0.939 2.082-2.082 2.082s-2.082-0.918-2.082-2.082v-5.347h-6.694c0 5.367 0 5.429 0 5.429 0 4.837 3.918 8.755 8.755 8.755 4.796 0 8.755-3.857 8.755-8.633v-12.49c0-1.143 0.939-2.082 2.082-2.082s2.082 0.939 2.082 2.082v2.408zM32.49 17.429v5.612c0 1.143-0.939 2.061-2.082 2.061s-2.082-0.918-2.082-2.061v-5.51l-3.98 1.184-2.674-1.245v5.469c0 4.796 3.939 8.674 8.755 8.674 4.837 0 8.755-3.918 8.755-8.755 0 0 0-0.061 0-5.429h-6.694z"></path>
</symbol>
    <symbol id="icon-cursor" viewBox="0 0 21 32">
<path fill="#fff" style="fill: var(--color1, #fff)" d="M19.042 18.067l-17.21-17.21c-0.202-0.219-0.471-0.319-0.756-0.319-0.134 0-0.286 0.034-0.403 0.084-0.403 0.168-0.672 0.555-0.672 0.992v25.277c0 0.437 0.269 0.824 0.672 0.992 0.118 0.050 0.269 0.084 0.403 0.084 0.286 0 0.555-0.118 0.756-0.319l5.244-5.244 3.21 7.597c0.235 0.538 0.857 0.807 1.412 0.571l2.975-1.261c0.538-0.235 0.807-0.857 0.571-1.412l-3.378-8h6.42c0.437 0 0.824-0.269 0.992-0.672 0.168-0.387 0.084-0.857-0.235-1.16z"></path>
</symbol>
    <symbol id="icon-Play" viewBox="0 0 28 32">
      <path fill="#02897a" style="fill:var(--color5, #02897a)" d="M26.088 12.891c2.441 1.354 2.441 4.864 0 6.218L4.933 30.848c-2.37 1.315-5.281-.399-5.281-3.109V4.262c0-2.71 2.911-4.424 5.281-3.109l21.155 11.739z"/>
    </symbol>
<symbol id="icon-plus_circle" viewBox="0 0 32 32">
<path d="M0 16c0-8.832 7.168-16 16-16s16 7.168 16 16c0 8.832-7.168 16-16 16s-16-7.168-16-16zM17.6 17.6h6.4v-3.2h-6.4v-6.4h-3.2v6.4h-6.4v3.2h6.4v6.4h3.2v-6.4z"></path>
</symbol>
    <symbol id="icon-minus_circle" viewBox="0 0 32 32">
      <path fill="#02897a" style="fill:var(--color5, #02897a)" d="M0 16C0 7.168 7.168 0 16 0s16 7.168 16 16-7.168 16-16 16S0 24.832 0 16zm8 1.6h16v-3.2H8v3.2z"/>
    </symbol>
<symbol id="icon-mobile-screen" viewBox="0 0 21 32">
<path d="M16.935 2.286h-13.299c-1.377 0-2.494 1.152-2.494 2.571v22.286c0 1.42 1.117 2.571 2.494 2.571h13.299c1.377 0 2.494-1.152 2.494-2.571v-22.286c0-1.42-1.117-2.571-2.494-2.571zM12.779 26.238c0 0.52-0.374 0.905-0.831 0.905h-3.371c-0.41 0-0.784-0.386-0.784-0.857s0.374-0.857 0.831-0.857h3.325c0.457 0 0.831 0.386 0.831 0.809zM16.104 22.857h-11.636v-17.143h11.636v17.143z"></path>
</symbol>
  </defs>
</svg>