<svg aria-hidden="true" style="position:absolute;width:0;height:0;overflow:hidden" xmlns="http://www.w3.org/2000/svg">
  <defs>
    <symbol id="icon-Feature-icon3" viewBox="0 0 32 32">
      <path fill="#f4f5f7" style="fill:var(--color1, #f4f5f7)" d="M16 0c8.837 0 16 7.163 16 16s-7.163 16-16 16S0 24.837 0 16 7.163 0 16 0z"/>
      <path fill="#d6b1ff" style="fill:var(--color2, #d6b1ff)" d="M11.52 8.96H9.6c-.17 0-.333.067-.453.187s-.187.283-.187.453v12.8c0 .17.067.333.187.453s.283.187.453.187h1.92V8.96z"/>
      <path fill="#f03e3d" style="fill:var(--color3, #f03e3d)" d="M12.8 23.04h6.4V8.96h-6.4v14.08zm3.2-2.56c-.17 0-.333-.067-.453-.187s-.187-.283-.187-.453c0-.17.067-.333.187-.453s.283-.187.453-.187c.17 0 .333.067.453.187s.187.283.187.453c0 .17-.067.333-.187.453s-.283.187-.453.187zm0-8.96c.17 0 .333.067.453.187s.187.283.187.453c0 .17-.067.333-.187.453s-.283.187-.453.187c-.17 0-.333-.067-.453-.187s-.187-.283-.187-.453c0-.17.067-.333.187-.453s.283-.187.453-.187zm0 3.84c.17 0 .333.067.453.187s.187.283.187.453c0 .17-.067.333-.187.453s-.283.187-.453.187c-.17 0-.333-.067-.453-.187s-.187-.283-.187-.453c0-.17.067-.333.187-.453s.283-.187.453-.187zM22.4 8.96h-1.92v14.08h1.92c.17 0 .333-.067.453-.187s.187-.283.187-.453V9.6c0-.17-.067-.333-.187-.453s-.283-.187-.453-.187z"/>
    </symbol>
    <symbol id="icon-Feature-icon2" viewBox="0 0 32 32">
      <path fill="#f4f5f7" style="fill:var(--color1, #f4f5f7)" d="M16 0c8.837 0 16 7.163 16 16s-7.163 16-16 16S0 24.837 0 16 7.163 0 16 0z"/>
      <path fill="#d6b1ff" style="fill:var(--color2, #d6b1ff)" d="M21.76 23.68H16c-.17 0-.333-.067-.453-.187s-.187-.283-.187-.453v-1.28c0-.17.067-.333.187-.453s.283-.187.453-.187h5.76c.17 0 .333.067.453.187s.187.283.187.453v1.28c0 .17-.067.333-.187.453s-.283.187-.453.187z"/>
      <path fill="#11b5e4" style="fill:var(--color4, #11b5e4)" d="M21.76 8.32H10.24c-.17 0-.333.067-.453.187S9.6 8.79 9.6 8.96v1.28c0 .17.067.333.187.453s.283.187.453.187h11.52c.17 0 .333-.067.453-.187s.187-.283.187-.453V8.96c0-.17-.067-.333-.187-.453s-.283-.187-.453-.187zM21.76 12.16H10.24c-.17 0-.333.067-.453.187s-.187.283-.187.453v6.4c0 .17.067.333.187.453s.283.187.453.187h11.52c.17 0 .333-.067.453-.187s.187-.283.187-.453v-6.4c0-.17-.067-.333-.187-.453s-.283-.187-.453-.187z"/>
    </symbol>
    <symbol id="icon-Feature-icon1" viewBox="0 0 32 32">
      <path fill="#f4f5f7" style="fill:var(--color1, #f4f5f7)" d="M16 0c8.837 0 16 7.163 16 16s-7.163 16-16 16S0 24.837 0 16 7.163 0 16 0z"/>
      <path fill="#d6b1ff" style="fill:var(--color2, #d6b1ff)" d="M19.84 14.72h3.84l-1.92-2.56-1.92 2.56zm0 2.56h3.84l-1.92 2.56-1.92-2.56z"/>
      <path fill="#02897a" style="fill:var(--color5, #02897a)" d="M8.96 8.32h3.84v15.36H8.96c-.17 0-.333-.067-.453-.187s-.187-.283-.187-.453V8.96c0-.17.067-.333.187-.453s.283-.187.453-.187zM14.08 8.32h3.84c.17 0 .333.067.453.187s.187.283.187.453v14.08c0 .17-.067.333-.187.453s-.283.187-.453.187h-3.84V8.32z"/>
    </symbol>
    <symbol id="icon-twitter" viewBox="0 0 32 32">
      <path fill="#edfffc" style="fill:var(--color6, #edfffc)" d="M32 16c0 8.837-7.163 16-16 16S0 24.837 0 16 7.163 0 16 0s16 7.163 16 16z"/>
      <path fill="none" stroke="#02897a" style="stroke:var(--color5, #02897a)" stroke-linejoin="round" stroke-linecap="round" stroke-width="1.6" d="M24.8 8.808c-.766.54-1.614.954-2.512 1.224-.482-.554-1.122-.947-1.834-1.125s-1.462-.133-2.148.128c-.686.262-1.275.728-1.687 1.335s-.628 1.327-.618 2.061v.8c-1.406.036-2.799-.275-4.055-.908s-2.337-1.565-3.145-2.716c0 0-3.2 7.2 4 10.4a9.3158 9.3158 0 0 1-5.6 1.6c7.2 4 16 0 16-9.2a3.6085 3.6085 0 0 0-.064-.664 6.177 6.177 0 0 0 1.664-2.936v0z"/>
    </symbol>
    <symbol id="icon-facebook" viewBox="0 0 32 32">
      <path fill="#edfffc" style="fill:var(--color6, #edfffc)" d="M32 16c0 8.837-7.163 16-16 16S0 24.837 0 16 7.163 0 16 0s16 7.163 16 16z"/>
      <path fill="none" stroke="#02897a" style="stroke:var(--color5, #02897a)" stroke-linejoin="round" stroke-linecap="round" stroke-width="1.6" d="M20.8 8h-2.4c-1.061 0-2.078.421-2.828 1.172S14.4 10.94 14.4 12v2.4H12v3.2h2.4V24h3.2v-6.4H20l.8-3.2h-3.2V12c0-.212.084-.416.234-.566s.354-.234.566-.234h2.4V8z"/>
    </symbol>
    <symbol id="icon-instagram" viewBox="0 0 32 32">
      <path fill="#edfffc" style="fill:var(--color6, #edfffc)" d="M32 16c0 8.837-7.163 16-16 16S0 24.837 0 16 7.163 0 16 0s16 7.163 16 16z"/>
      <path fill="none" stroke="#02897a" style="stroke:var(--color5, #02897a)" stroke-linejoin="round" stroke-linecap="round" stroke-width="1.6" d="M20 8h-8c-2.209 0-4 1.791-4 4v8c0 2.209 1.791 4 4 4h8c2.209 0 4-1.791 4-4v-8c0-2.209-1.791-4-4-4z"/>
      <path fill="none" stroke="#02897a" style="stroke:var(--color5, #02897a)" stroke-linejoin="round" stroke-linecap="round" stroke-width="1.6" d="M19.2 15.496c.099.666-.015 1.346-.325 1.943s-.8 1.082-1.402 1.385c-.601.303-1.283.408-1.947.301s-1.278-.421-1.754-.897-.79-1.09-.897-1.754c-.107-.664-.002-1.346.301-1.947s.787-1.092 1.384-1.402 1.277-.424 1.943-.325c.679.101 1.308.417 1.793.903s.802 1.114.903 1.793zM20.4 11.6h.008"/>
    </symbol>
    <symbol id="icon-tick" viewBox="0 0 45 32">
      <path d="M42.17 0.638c-0.834-0.851-2.188-0.851-3.022 0l-25.606 26.102-9.843-10.033c-0.835-0.851-2.188-0.851-3.023 0s-0.835 2.23 0 3.081l11.354 11.574c0.834 0.851 2.189 0.85 3.023 0l27.117-27.643c0.835-0.851 0.835-2.23 0-3.081z"></path>
      </symbol>
    <symbol id="icon-sandclock" viewBox="0 0 32 32">
      <path d="M11.259 0h9.481c6.218 0 11.259 5.041 11.259 11.259v9.481c0 6.218-5.041 11.259-11.259 11.259h-9.481C5.041 31.999 0 26.958 0 20.74v-9.481C0 5.041 5.041 0 11.259 0z"/>
      <path d="M19.302 12.106h.508a.167.167 0 0 0 .169-.169v-.339a.167.167 0 0 0-.169-.169h-7.788a.167.167 0 0 0-.169.169v.339c0 .095.074.169.169.169h.508c0 1.958.936 3.376 1.973 4.063-1.037.688-1.973 2.106-1.973 4.064h-.508a.167.167 0 0 0-.169.169v.339c0 .095.074.169.169.169h7.788a.167.167 0 0 0 .169-.169v-.339a.167.167 0 0 0-.169-.169h-.508c0-1.958-.936-3.376-1.974-4.064 1.037-.688 1.974-2.106 1.974-4.063zm-.678 0c0 .772-.175 1.455-.45 2.032h-4.519c-.275-.577-.45-1.259-.45-2.032h5.418zm-.301 6.434h-4.815c.392-1.021 1.095-1.746 1.799-2.032h1.217c.704.286 1.407 1.011 1.799 2.032z"/>
    </symbol>
    <symbol id="icon-heard" viewBox="0 0 32 32">
      <path d="M11.871 2.065h8.258c5.416 0 9.806 4.391 9.806 9.806v8.258c0 5.416-4.39 9.806-9.806 9.806h-8.258c-5.416 0-9.806-4.39-9.806-9.806v-8.258c0-5.416 4.391-9.806 9.806-9.806z"/>
      <path d="M16 19.687c.074 0 .147-.028.203-.083l2.871-2.765c.041-.041 1.055-.968 1.055-2.074 0-1.35-.825-2.157-2.203-2.157-.806 0-1.562.636-1.926.995-.364-.359-1.12-.995-1.926-.995-1.378 0-2.203.806-2.203 2.157 0 1.106 1.014 2.032 1.051 2.065l2.876 2.774c.055.055.129.083.203.083z"/>
    </symbol>
    <symbol id="icon-wave" viewBox="0 0 32 32">
      <path d="M11.871 2.065h8.258c5.416 0 9.806 4.391 9.806 9.806v8.258c0 5.416-4.39 9.806-9.806 9.806h-8.258c-5.416 0-9.806-4.39-9.806-9.806v-8.258c0-5.416 4.391-9.806 9.806-9.806z"/>
      <path d="m16.249 15.3.604.281.899-.267v-.627c0-1.065-.899-1.917-1.972-1.917-1.069 0-1.972.848-1.972 1.903v2.857c0 .263-.212.47-.47.47s-.47-.207-.47-.47v-1.207h-1.512v1.226c0 1.092.885 1.977 1.977 1.977 1.083 0 1.977-.871 1.977-1.949v-2.82c0-.258.212-.47.47-.47s.47.212.47.47v.544zm2.442 1.023v1.267c0 .258-.212.465-.47.465s-.47-.207-.47-.465v-1.244l-.899.267-.604-.281v1.235c0 1.083.889 1.959 1.977 1.959 1.092 0 1.977-.885 1.977-1.977v-1.226H18.69z"/>
    </symbol>
    <symbol id="icon-cursor" viewBox="0 0 32 32">
      <path fill="#02897a" style="fill:var(--color5, #02897a)" d="M11.871 2.065h8.258c5.416 0 9.806 4.391 9.806 9.806v8.258c0 5.416-4.39 9.806-9.806 9.806h-8.258c-5.416 0-9.806-4.39-9.806-9.806v-8.258c0-5.416 4.391-9.806 9.806-9.806z"/>
      <path fill="#fff" style="fill:var(--color7, #fff)" d="m18.641 16.825-4.719-4.719c-.055-.06-.129-.088-.207-.088-.037 0-.078.009-.111.023a.2945.2945 0 0 0-.184.272v6.931c0 .12.074.226.184.272.032.014.074.023.111.023a.29.29 0 0 0 .207-.088l1.438-1.438.88 2.083c.065.147.235.221.387.157l.816-.346c.148-.065.221-.235.157-.387l-.926-2.194h1.76c.12 0 .226-.074.272-.184a.2839.2839 0 0 0-.065-.318z"/>
    </symbol>
    <symbol id="icon-Play" viewBox="0 0 28 32">
      <path fill="#02897a" style="fill:var(--color5, #02897a)" d="M26.088 12.891c2.441 1.354 2.441 4.864 0 6.218L4.933 30.848c-2.37 1.315-5.281-.399-5.281-3.109V4.262c0-2.71 2.911-4.424 5.281-3.109l21.155 11.739z"/>
    </symbol>
    <symbol id="icon-plus_circle" viewBox="0 0 32 32">
      <path fill="#02897a" style="fill:var(--color5, #02897a)" d="M0 16C0 7.168 7.168 0 16 0s16 7.168 16 16-7.168 16-16 16S0 24.832 0 16zm17.6 1.6H24v-3.2h-6.4V8h-3.2v6.4H8v3.2h6.4V24h3.2v-6.4z"/>
    </symbol>
    <symbol id="icon-minus_circle" viewBox="0 0 32 32">
      <path fill="#02897a" style="fill:var(--color5, #02897a)" d="M0 16C0 7.168 7.168 0 16 0s16 7.168 16 16-7.168 16-16 16S0 24.832 0 16zm8 1.6h16v-3.2H8v3.2z"/>
    </symbol>
  </defs>
</svg>